<?xml version="1.0" standalone="no"?>
<!DOCTYPE svg PUBLIC "-//W3C//DTD SVG 20010904//EN"
 "http://www.w3.org/TR/2001/REC-SVG-20010904/DTD/svg10.dtd">
<svg version="1.0" xmlns="http://www.w3.org/2000/svg"
 width="1300.000000pt" height="1300.000000pt" viewBox="0 0 1300.000000 1300.000000"
 preserveAspectRatio="xMidYMid meet">

<g transform="translate(0.000000,1300.000000) scale(0.100000,-0.100000)"
fill="#000000" stroke="none">
<path d="M3710 10534 c-160 -43 -505 -260 -784 -494 -617 -517 -1176 -1436
-1484 -2440 -158 -514 -226 -899 -178 -1013 12 -30 77 -97 95 -97 4 0 20 29
34 65 l27 66 -25 49 c-14 27 -25 51 -25 53 0 2 22 14 49 27 l50 23 -20 38
c-10 21 -19 41 -19 43 0 3 19 15 43 27 23 12 43 23 45 24 2 2 -6 22 -18 45
-12 23 -20 43 -18 45 2 1 22 12 45 24 48 24 51 33 24 78 l-19 31 46 24 c26 12
48 24 50 25 2 0 -6 20 -18 43 -12 23 -20 43 -18 45 2 1 22 12 46 24 23 12 42
26 42 33 0 6 -9 26 -21 44 l-20 33 51 26 50 25 -20 41 c-15 29 -18 44 -11 53
6 7 9 16 6 20 -3 3 0 2 6 -3 10 -8 28 -2 68 25 1 2 -4 17 -13 35 -23 46 -21
53 29 77 l45 22 -20 40 c-11 23 -19 44 -16 49 3 4 23 16 46 26 43 19 47 29 25
59 -27 36 -18 53 46 88 l61 33 110 215 c188 369 257 489 319 551 192 192 434
153 824 -132 306 -224 500 -392 805 -698 330 -331 446 -462 478 -542 14 -35
35 -80 47 -99 29 -46 106 -116 151 -137 28 -14 34 -21 29 -38 -51 -172 -11
-323 107 -411 32 -23 63 -44 69 -46 7 -2 -8 -32 -35 -72 -67 -98 -64 -138 21
-297 2 -4 -20 -20 -50 -37 -74 -42 -128 -106 -156 -186 -20 -57 -23 -79 -18
-154 3 -48 8 -96 12 -108 5 -17 -1 -24 -35 -39 -86 -39 -182 -173 -208 -290
-22 -101 -25 -151 -8 -168 9 -8 16 -24 16 -35 0 -10 7 -40 16 -66 l16 -48 -39
-41 c-158 -165 -165 -450 -17 -634 l34 -41 -21 -48 c-28 -62 -39 -195 -22
-274 16 -80 64 -175 120 -239 41 -47 44 -53 30 -69 -185 -211 -579 -670 -608
-708 -128 -167 -239 -431 -265 -625 l-7 -49 41 0 c116 0 271 51 411 136 173
105 287 212 542 508 106 121 196 225 200 230 5 6 42 -6 90 -29 47 -22 104 -40
136 -44 l54 -6 24 -58 c60 -149 177 -249 341 -292 69 -18 173 -18 229 -1 l40
12 48 -53 c56 -60 156 -115 244 -133 129 -27 332 11 353 65 5 13 12 25 17 28
4 3 37 -13 72 -34 74 -45 111 -57 196 -66 160 -15 337 58 431 179 21 27 23 28
80 17 229 -43 478 102 549 318 l16 49 62 13 c34 7 90 26 125 43 l63 31 37 -44
c102 -120 331 -381 381 -434 206 -222 456 -382 651 -419 92 -18 160 -21 160
-7 0 34 -34 177 -64 265 -79 237 -144 333 -513 757 -158 183 -303 350 -321
371 l-34 38 51 56 c125 137 165 347 98 513 l-26 64 29 36 c62 78 100 195 100
312 0 114 -69 274 -147 338 l-35 29 28 25 c26 25 28 33 32 120 2 52 -1 117 -7
145 -25 118 -114 244 -206 293 -37 19 -45 28 -40 44 50 176 8 332 -113 417
-30 20 -58 38 -64 40 -5 2 11 34 36 71 67 100 64 139 -21 298 -2 4 20 20 50
37 123 69 184 191 174 345 -3 45 -8 91 -11 102 -5 16 1 24 34 39 81 39 184
176 204 273 8 35 48 81 301 347 328 346 712 677 1020 882 209 139 305 177 450
178 88 1 107 -2 155 -25 136 -65 182 -133 480 -717 l74 -144 58 -29 c61 -31
70 -49 43 -85 -22 -30 -18 -40 25 -59 23 -10 43 -22 46 -26 3 -5 -5 -26 -16
-49 l-20 -40 45 -22 c49 -24 53 -34 29 -79 -8 -17 -14 -32 -12 -33 2 -1 21
-13 43 -26 22 -13 41 -25 43 -26 2 -1 -6 -20 -17 -43 l-21 -41 50 -25 51 -26
-20 -33 c-12 -18 -21 -38 -21 -44 0 -7 19 -21 43 -33 23 -12 43 -23 45 -24 2
-2 -6 -21 -17 -43 l-20 -40 22 -15 c12 -8 32 -17 45 -21 25 -8 27 -21 7 -56
-22 -38 -18 -48 28 -71 23 -12 43 -23 45 -24 2 -2 -6 -22 -18 -45 -12 -23 -20
-43 -18 -45 2 -1 22 -12 46 -24 23 -12 42 -24 42 -27 0 -2 -9 -22 -19 -43
l-20 -38 50 -23 c27 -13 49 -25 49 -27 0 -2 -11 -26 -25 -53 l-25 -49 27 -66
c14 -36 30 -65 34 -65 18 0 83 67 95 97 71 168 -117 937 -390 1602 -292 711
-748 1392 -1195 1784 -319 280 -677 513 -866 562 -184 47 -441 -19 -485 -125
-18 -44 -8 -130 19 -169 31 -43 75 -63 213 -99 295 -78 552 -225 706 -407 68
-80 96 -147 96 -230 0 -131 -56 -194 -349 -392 -252 -171 -568 -413 -685 -524
-8 -8 -55 -50 -103 -93 -83 -75 -88 -78 -102 -60 -8 10 -15 22 -15 26 0 4 -14
23 -31 42 -28 33 -29 36 -16 63 46 88 52 241 14 350 -43 124 -112 211 -215
269 l-50 28 -1 70 c-1 173 -109 340 -271 419 -44 22 -99 40 -133 45 l-58 7
-23 55 c-60 149 -181 253 -343 295 -68 18 -172 18 -228 1 l-40 -12 -48 53
c-56 60 -156 115 -244 134 -127 26 -333 -13 -353 -67 -10 -24 -43 -33 -55 -14
-10 16 -107 62 -136 65 -14 1 -32 5 -39 10 -7 4 -42 10 -79 12 -152 11 -318
-63 -408 -180 -22 -28 -24 -29 -73 -18 -104 22 -210 7 -319 -46 -104 -51 -213
-177 -240 -279 -11 -40 -12 -41 -70 -51 -94 -18 -167 -58 -246 -137 -50 -49
-82 -91 -103 -136 -35 -74 -55 -180 -46 -239 6 -38 5 -40 -32 -57 -61 -29
-156 -130 -191 -204 -61 -129 -69 -279 -20 -398 l25 -64 -35 -46 c-19 -26 -37
-49 -39 -51 -2 -2 -41 32 -88 76 -251 238 -494 429 -854 673 -217 147 -293
219 -318 306 -33 114 12 224 144 354 176 173 406 293 697 364 122 29 177 73
195 152 11 47 -1 100 -31 138 -67 85 -310 132 -469 90z m375 -273 c-6 -5 -55
-23 -110 -40 -248 -78 -497 -211 -690 -366 -54 -43 -56 -44 -25 -11 42 46 193
159 275 208 161 96 284 144 555 217 2 0 0 -3 -5 -8z m5065 -61 c175 -59 428
-205 546 -316 l59 -55 -65 49 c-185 140 -422 264 -641 336 -71 23 -131 45
-134 48 -8 8 156 -36 235 -62z m-2859 -4 c104 -24 191 -93 241 -191 11 -22 42
-66 68 -98 48 -59 152 -226 164 -263 6 -18 -1 -22 -66 -37 -40 -10 -93 -29
-117 -43 -39 -22 -46 -23 -60 -10 -9 8 -36 23 -61 34 l-44 19 44 26 c25 14 57
29 73 32 15 4 30 11 33 16 3 5 -32 -5 -78 -22 -105 -40 -153 -47 -162 -24 -4
11 0 23 11 32 17 13 16 13 -3 4 -17 -8 -26 -5 -47 17 l-26 28 22 14 c12 8 56
33 97 57 96 56 82 55 -38 -2 l-95 -45 -22 20 c-12 11 -26 17 -31 13 -5 -5 0 3
11 17 11 13 13 19 5 13 -12 -9 -21 -6 -44 14 l-30 25 25 19 c13 10 50 33 82
51 127 72 85 65 -59 -10 l-73 -39 -21 22 -21 23 28 22 28 22 -36 -20 c-35 -19
-35 -19 -62 2 -15 12 -27 25 -27 28 0 6 35 30 196 136 37 24 -112 -51 -169
-85 -56 -34 -58 -34 -83 -18 l-26 17 24 25 c22 25 9 23 -22 -3 -9 -8 -21 -10
-29 -5 -10 7 -3 20 30 56 96 104 230 144 370 111z m607 0 c70 -19 145 -69 187
-123 40 -52 103 -210 134 -333 38 -153 64 -383 46 -402 -15 -15 -57 7 -69 36
-17 39 -134 159 -178 182 -36 19 -35 20 33 34 38 8 35 9 -24 4 -38 -3 -89 -1
-115 6 -43 10 -49 15 -68 58 l-21 47 21 11 c11 6 55 18 96 27 117 25 119 26
52 20 -35 -3 -90 -11 -122 -17 -58 -12 -60 -12 -75 10 -20 30 -19 33 8 45 21
9 21 9 -4 4 -20 -3 -30 2 -47 25 -26 35 -27 35 93 72 77 24 83 28 40 23 -27
-4 -76 -13 -108 -21 -57 -15 -58 -14 -77 8 -18 22 -18 24 -2 37 15 12 15 13
-5 8 -17 -4 -28 2 -44 25 -12 16 -19 32 -15 35 3 3 49 21 103 39 116 39 96 44
-36 9 -88 -24 -95 -24 -112 -9 -26 24 -24 33 14 50 l32 15 -30 -7 c-49 -11
-60 -10 -60 6 0 17 63 55 125 74 58 19 161 19 228 2z m537 -170 c28 -7 68 -21
89 -31 56 -27 138 -106 171 -167 28 -50 30 -60 33 -190 2 -76 -1 -177 -7 -225
-14 -103 -59 -301 -71 -308 -5 -3 -18 10 -29 29 -45 72 -158 159 -243 186 -21
6 -38 17 -38 24 0 10 17 10 73 4 39 -5 87 -13 106 -18 19 -5 37 -8 39 -6 5 5
-93 34 -164 48 -50 10 -54 13 -54 39 0 26 4 29 33 30 l32 1 -30 7 c-26 5 -30
11 -33 44 -4 43 -7 42 103 26 42 -6 79 -8 82 -6 4 5 -36 14 -174 43 -18 3 -23
11 -23 34 0 24 4 30 23 31 21 1 21 1 -3 8 -19 5 -26 14 -28 40 l-3 34 106 -5
c58 -3 104 -4 102 -2 -2 2 -53 12 -113 22 l-109 19 -6 31 c-6 29 -4 32 20 33
l26 2 -25 4 c-31 6 -36 11 -44 46 l-6 27 107 1 c120 1 102 13 -40 25 -71 6
-80 9 -88 31 -14 37 -12 41 24 46 31 4 31 4 -5 5 -25 1 -38 7 -38 16 0 31 123
44 205 22z m-1642 -47 c75 -38 188 -114 267 -180 66 -55 170 -159 170 -170 0
-3 -19 -9 -42 -12 -60 -8 -182 -72 -236 -123 -30 -29 -49 -41 -56 -34 -10 10
-2 21 94 124 49 53 51 56 15 29 -22 -17 -62 -54 -89 -81 -44 -45 -51 -49 -72
-40 -29 13 -30 24 -7 52 14 17 13 16 -9 -2 -25 -23 -27 -23 -58 -7 l-31 16 33
44 c18 24 53 67 77 97 33 39 20 29 -47 -36 -87 -86 -92 -89 -118 -78 -26 12
-26 13 -9 40 l18 27 -25 -23 c-21 -19 -28 -21 -56 -11 -18 6 -32 13 -32 16 0
8 67 100 119 163 l44 55 -52 -50 c-28 -27 -71 -74 -94 -103 -37 -47 -45 -53
-71 -47 -40 7 -41 9 -16 47 l22 33 -29 -32 c-27 -31 -31 -32 -66 -22 -25 7
-35 14 -31 22 10 17 76 112 119 172 l36 50 -50 -55 c-28 -30 -69 -81 -93 -113
-39 -51 -46 -57 -72 -52 -16 3 -31 7 -33 9 -2 2 6 20 18 40 27 46 18 47 -11 1
-27 -43 -55 -48 -46 -7 20 82 111 191 194 233 110 55 226 58 325 8z m808 14
c13 -16 12 -17 -3 -4 -10 7 -18 15 -18 17 0 8 8 3 21 -13z m-3376 -213 c10
-11 16 -20 13 -20 -3 0 -13 9 -23 20 -10 11 -16 20 -13 20 3 0 13 -9 23 -20z
m4751 -151 c80 -38 164 -126 195 -206 33 -87 30 -184 -9 -289 -55 -146 -151
-321 -234 -427 l-30 -38 -36 42 c-20 23 -60 57 -90 76 -59 38 -58 37 -66 108
-3 28 -8 65 -12 83 -4 17 -3 32 2 32 5 0 45 -21 89 -48 44 -26 87 -51 95 -56
26 -14 -51 47 -109 87 -31 21 -56 43 -55 48 1 5 2 18 3 30 1 15 6 19 16 15 41
-17 48 -16 24 0 -23 17 -25 22 -16 49 5 17 11 32 13 33 1 2 41 -16 88 -40 102
-54 101 -44 -3 24 -41 27 -77 51 -79 52 -1 2 2 15 8 30 9 23 12 25 31 16 11
-7 23 -10 25 -7 2 2 -8 10 -22 17 -18 10 -24 20 -20 35 3 11 6 26 6 33 0 20
21 14 123 -36 53 -26 97 -47 97 -45 0 4 -103 69 -155 98 -27 16 -52 30 -53 31
-2 1 -1 16 3 33 l7 31 34 -15 c19 -8 32 -11 30 -6 -3 5 -19 14 -36 21 -30 12
-35 26 -24 67 7 26 4 26 142 -38 56 -26 102 -46 102 -45 0 6 -115 74 -177 105
-57 28 -63 34 -63 62 0 33 6 34 65 15 11 -3 1 3 -22 14 -42 20 -50 30 -36 44
13 12 85 -5 149 -35z m-2596 -34 c136 -33 252 -76 372 -137 94 -47 127 -72
115 -85 -4 -3 -35 -7 -71 -8 -95 -4 -181 -36 -259 -97 l-38 -30 25 66 c35 93
17 74 -29 -29 -35 -78 -41 -86 -64 -83 -22 3 -26 8 -25 33 l2 30 -11 -27 c-8
-22 -18 -28 -39 -28 -42 0 -45 23 -14 114 40 117 40 118 1 41 -20 -38 -41 -87
-47 -108 -10 -34 -14 -38 -42 -35 -26 3 -31 7 -29 28 3 25 3 25 -7 3 -7 -18
-18 -23 -46 -23 l-36 0 7 38 c4 20 17 71 31 112 13 41 22 76 20 78 -4 4 -71
-163 -80 -200 -4 -19 -13 -28 -25 -28 -11 0 -27 -3 -36 -7 -15 -5 -16 -1 -11
28 l5 34 -11 -32 c-10 -30 -15 -33 -50 -33 -33 0 -39 3 -35 18 21 74 38 164
34 168 -3 3 -20 -39 -38 -95 -25 -79 -36 -101 -50 -102 -11 -1 -25 -2 -31 -3
-8 -1 -12 9 -11 24 2 24 2 24 -8 -2 -6 -16 -18 -28 -26 -28 -13 0 -15 12 -11
78 9 156 111 290 261 344 66 24 161 19 307 -17z m1033 -83 c56 -25 117 -80
117 -106 0 -8 19 -40 43 -72 121 -166 196 -344 209 -498 3 -37 1 -39 -51 -69
-60 -34 -109 -37 -150 -10 -14 10 -32 20 -39 23 -9 4 7 20 42 43 68 45 74 59
10 23 -68 -38 -106 -42 -123 -15 -12 20 -11 24 5 37 18 13 18 14 -3 7 -18 -5
-25 -1 -34 19 -16 34 -5 46 86 92 41 21 73 39 72 41 -5 4 -130 -48 -152 -63
-27 -19 -38 -18 -54 8 -12 19 -11 23 10 40 l24 19 -28 -13 c-26 -11 -31 -10
-48 12 -19 25 -19 25 9 48 15 13 46 35 70 49 72 43 38 38 -44 -6 l-77 -42 -20
20 -20 20 24 21 24 21 -28 -17 c-27 -16 -29 -16 -52 6 l-25 24 22 23 c12 13
50 42 85 65 34 23 61 43 59 45 -4 5 -154 -82 -176 -102 -13 -11 -19 -10 -39 6
l-24 20 24 26 24 26 -31 -22 c-31 -22 -31 -22 -63 -3 l-31 19 44 41 c24 22 67
57 95 77 28 20 51 39 51 41 0 12 -113 -61 -174 -112 -37 -32 -40 -33 -68 -18
l-30 16 28 31 29 32 -31 -27 c-31 -29 -54 -36 -54 -17 0 19 60 98 93 123 115
86 245 103 370 48z m534 -12 c73 -33 140 -97 171 -163 26 -56 52 -217 52 -327
0 -105 -24 -260 -55 -359 l-27 -84 -65 6 c-72 5 -104 23 -140 77 -37 54 -32
60 50 62 l72 1 -77 10 c-76 10 -78 11 -78 38 0 21 6 29 23 32 18 4 17 4 -6 6
-26 1 -28 4 -25 34 3 32 3 32 71 39 94 9 96 18 4 18 -42 0 -77 3 -77 8 0 4 -3
17 -6 30 -5 18 -2 22 17 23 l24 1 -25 7 c-17 5 -26 16 -31 38 -6 32 -6 32 40
38 128 18 139 23 42 23 -84 -1 -96 1 -102 18 -13 33 -10 43 19 47 25 4 25 4
-6 6 -25 1 -35 7 -42 27 -16 42 -10 45 130 65 42 6 29 7 -53 5 l-108 -4 -14
28 c-13 26 -13 29 3 33 14 4 13 5 -3 6 -18 1 -63 57 -53 66 5 4 187 44 223 48
20 3 16 4 -15 5 -41 1 -103 -6 -201 -24 -31 -5 -38 -3 -53 20 -16 26 -16 27 6
36 22 9 21 9 -6 7 -16 -1 -31 3 -33 10 -5 14 79 59 134 72 58 15 151 2 220
-29z m-3952 -146 c21 -8 125 -215 125 -248 0 -42 -30 -50 -164 -42 -183 9
-192 27 -89 181 79 120 85 125 128 109z m7059 0 c20 -8 146 -206 146 -231 0
-42 -29 -53 -161 -60 -110 -5 -127 -4 -142 11 -26 27 -21 48 38 165 59 119 73
133 119 115z m-4116 -116 c112 -49 180 -91 269 -166 88 -75 195 -214 186 -240
-27 -73 -93 -132 -148 -132 -63 0 -65 23 -10 111 39 61 14 39 -31 -28 -21 -32
-39 -59 -40 -61 -1 -2 -27 9 -58 25 -65 32 -65 28 -4 143 22 41 35 71 30 65
-13 -14 -100 -145 -105 -158 -2 -6 -11 -6 -26 2 -17 9 -21 19 -17 34 5 21 5
21 -10 3 -12 -16 -19 -18 -42 -10 -34 12 -32 25 19 129 45 90 20 66 -38 -38
-33 -58 -42 -67 -63 -65 -20 2 -25 8 -23 28 2 25 2 25 -9 3 -9 -18 -16 -21
-42 -16 -17 3 -33 7 -34 9 -6 4 34 107 64 167 14 28 21 48 16 42 -16 -15 -79
-130 -93 -169 -11 -32 -17 -36 -47 -36 -30 0 -33 2 -27 23 5 19 4 20 -5 5 -12
-19 -80 -26 -80 -9 0 9 48 144 65 185 6 13 5 17 -2 13 -6 -4 -30 -51 -53 -106
-35 -81 -47 -100 -66 -104 -30 -5 -36 4 -29 40 4 23 3 22 -8 -6 -7 -19 -19
-37 -27 -39 -10 -4 -12 9 -8 60 12 146 109 269 251 320 75 27 144 20 245 -24z
m1469 -19 c66 -32 148 -117 180 -186 42 -91 43 -183 4 -302 -57 -171 -164
-361 -274 -485 -48 -55 -57 -55 -126 -6 -50 37 -81 95 -81 154 0 52 1 52 84 3
62 -36 41 -8 -25 35 -48 31 -57 49 -40 77 7 10 13 11 32 1 l24 -11 -23 18
c-21 17 -22 22 -11 46 15 32 25 31 117 -19 34 -18 62 -31 62 -29 0 4 -65 48
-149 102 -2 1 0 14 3 29 6 21 11 25 29 21 21 -6 21 -5 4 8 -15 10 -17 21 -12
44 4 17 12 31 19 31 7 0 52 -20 99 -44 48 -24 87 -43 87 -41 0 5 -137 91 -163
103 -23 10 -26 16 -21 39 4 16 11 31 17 34 6 4 6 9 0 12 -5 4 -8 20 -5 38 4
28 7 30 33 25 16 -3 64 -21 107 -41 98 -45 64 -17 -51 41 -66 34 -87 49 -83
60 3 9 6 22 6 30 0 11 7 14 23 10 l22 -6 -22 11 c-18 9 -23 21 -23 51 0 37 1
38 28 32 15 -4 64 -21 110 -40 45 -18 82 -30 82 -28 0 7 -203 104 -217 104 -8
0 -13 14 -13 36 0 32 2 35 23 28 39 -12 43 -11 10 4 -17 8 -34 21 -38 29 -9
24 111 11 172 -18z m-2036 -95 l36 -5 -23 -64 c-19 -53 -26 -88 -33 -186 -1
-4 -16 -12 -33 -20 -18 -7 -49 -25 -69 -41 -20 -15 -40 -28 -43 -28 -3 0 -7
44 -8 98 l-1 97 -10 -107 -10 -106 -28 -4 c-26 -4 -29 -2 -31 26 l-1 31 -4
-31 c-3 -25 -10 -33 -38 -41 -30 -10 -34 -8 -39 11 -3 11 -6 52 -6 89 0 43 -4
66 -10 62 -5 -3 -10 -46 -10 -96 0 -49 -3 -89 -7 -89 -5 0 -18 -3 -30 -6 -17
-5 -22 -1 -26 18 -4 22 -4 21 -6 -4 -1 -20 -9 -29 -32 -37 -18 -6 -33 -11 -35
-11 -6 0 -16 69 -23 161 l-8 94 -2 -135 -1 -136 -29 -11 c-27 -10 -30 -9 -34
11 -4 18 -4 17 -6 -5 -1 -18 -10 -30 -36 -42 l-34 -16 -6 32 c-3 18 -12 79
-20 137 l-14 105 5 -133 c3 -73 7 -138 10 -145 3 -8 -6 -19 -21 -25 -37 -17
-43 -15 -48 16 -3 22 -4 20 -6 -10 -2 -55 -16 -54 -41 4 -71 165 1 383 155
474 105 61 454 98 656 68z m2955 -36 c147 -100 208 -323 130 -478 -43 -84
-251 -285 -398 -385 -65 -43 -120 -76 -123 -73 -3 3 4 27 15 53 25 57 40 157
33 217 l-4 43 27 -30 27 -30 -18 29 c-61 101 -84 161 -66 179 7 7 17 5 32 -9
l22 -19 -17 26 c-16 26 -16 28 6 54 l24 27 59 -69 c33 -38 68 -80 78 -93 10
-14 15 -18 11 -10 -11 21 -79 125 -108 163 -24 32 -24 33 -6 57 l18 24 24 -19
23 -20 -20 23 c-19 23 -19 23 0 59 l20 36 78 -84 c43 -46 68 -68 54 -47 -25
39 -84 114 -104 136 -10 11 -10 19 3 44 l16 30 36 -33 37 -34 -34 37 -35 38
18 37 17 36 92 -89 c99 -97 98 -91 -5 32 -37 45 -68 84 -68 87 0 3 5 18 10 33
l11 27 37 -34 37 -34 -32 35 c-60 65 -35 80 43 28z m-2455 -321 c52 -14 118
-36 145 -48 l49 -24 -3 -64 c-4 -75 -20 -111 -64 -144 -64 -47 -68 -45 -69 36
l-2 72 -9 -55 c-17 -101 -17 -100 -43 -100 -19 0 -25 6 -26 23 l-2 22 -4 -22
c-4 -19 -11 -23 -39 -23 l-34 0 -1 78 c-1 68 -2 72 -10 37 -4 -22 -8 -57 -8
-77 -1 -21 -4 -38 -8 -38 -5 0 -18 -3 -30 -6 -21 -6 -23 -3 -25 32 l-1 39 -4
-36 c-3 -31 -9 -38 -31 -42 -15 -3 -30 -3 -34 0 -5 2 -9 48 -9 101 -2 85 -3
91 -9 47 -5 -27 -9 -76 -9 -107 -1 -43 -5 -58 -15 -58 -8 0 -21 -3 -30 -6 -13
-5 -16 2 -18 32 l-1 39 -4 -37 c-3 -30 -9 -38 -35 -47 -17 -6 -33 -11 -34 -11
-2 0 -4 24 -5 53 0 28 -4 72 -8 97 -7 37 -9 28 -10 -56 -1 -98 -2 -101 -26
-112 -34 -16 -33 -16 -38 16 -4 27 -4 27 -6 -3 -1 -25 -7 -33 -33 -43 -17 -6
-34 -9 -37 -7 -2 3 -7 44 -9 90 -3 47 -9 88 -15 92 -6 4 -8 -30 -5 -100 5
-103 4 -106 -19 -116 -31 -14 -31 -14 -36 7 -3 10 -5 6 -6 -10 -2 -48 -27 -32
-46 28 -26 82 -17 205 21 281 53 108 144 177 258 193 112 16 330 4 437 -23z
m652 -73 c17 -3 41 -13 52 -20 32 -22 106 -17 159 11 26 14 51 25 55 25 5 0
11 -19 15 -42 16 -101 78 -154 190 -165 65 -6 66 -6 58 -32 -4 -14 -7 -60 -7
-101 0 -67 3 -79 30 -117 17 -23 55 -57 86 -75 l57 -33 -18 -25 c-86 -123 -87
-235 -5 -336 21 -25 34 -49 29 -53 -5 -4 -26 -20 -47 -35 -26 -19 -47 -48 -68
-94 -40 -89 -45 -148 -20 -242 17 -67 18 -76 4 -85 -96 -63 -147 -122 -185
-215 -19 -46 -22 -75 -23 -175 0 -103 3 -127 22 -168 l23 -49 -30 -36 c-37
-47 -65 -111 -80 -187 -11 -55 -21 -69 -109 -170 -53 -60 -108 -123 -122 -140
-14 -16 -40 -46 -57 -65 -17 -19 -32 -33 -34 -30 -3 3 -79 91 -169 195 -91
105 -168 195 -172 201 -4 6 1 36 10 65 26 83 23 246 -6 329 -28 83 -83 163
-137 202 l-42 30 16 37 c11 25 16 66 16 136 1 83 -3 108 -22 150 -26 56 -70
106 -122 137 -19 12 -37 23 -39 25 -3 2 7 16 21 31 17 17 28 43 31 72 3 25 9
70 12 100 6 46 3 64 -18 110 -14 30 -38 70 -54 89 l-30 35 62 60 c51 50 64 70
74 111 12 51 5 117 -18 178 -16 41 -15 44 27 52 126 23 191 102 192 234 0 30
2 33 23 26 12 -4 52 -9 90 -12 82 -6 102 4 154 83 l36 55 29 -35 c16 -20 41
-37 61 -42z m-4503 36 c-6 -11 -13 -20 -16 -20 -2 0 0 9 6 20 6 11 13 20 16
20 2 0 0 -9 -6 -20z m5788 -84 c125 -138 134 -349 19 -483 -139 -162 -319
-307 -460 -371 l-66 -30 -35 38 c-36 40 -56 92 -56 145 0 36 18 102 29 109 5
3 28 -21 52 -54 24 -33 45 -60 47 -60 4 0 -29 62 -55 102 -20 30 -23 40 -13
57 13 26 18 26 44 4 20 -18 20 -18 4 8 -16 25 -16 28 6 48 l22 21 31 -33 c17
-17 45 -52 62 -76 49 -70 36 -34 -20 53 l-50 79 21 21 21 21 20 -25 21 -25
-18 32 c-17 31 -17 33 1 53 10 11 22 20 26 20 4 0 35 -34 68 -76 34 -41 61
-73 61 -69 0 9 -50 86 -81 126 -33 42 -34 48 -15 75 14 19 15 18 42 -6 l28
-25 -23 32 c-21 31 -21 34 -5 65 l17 32 36 -40 c20 -21 56 -61 80 -89 53 -60
29 -17 -39 70 -62 81 -62 80 -48 109 l11 26 30 -27 30 -28 -21 32 c-25 36 -26
43 -10 78 l12 26 85 -83 c95 -93 94 -89 -2 29 -37 45 -67 84 -67 87 0 3 5 17
10 32 l11 27 37 -34 37 -34 -32 35 c-18 20 -33 44 -33 53 0 16 3 16 38 -2 22
-11 62 -45 90 -75z m-3922 42 l19 -23 -25 20 c-14 11 -27 21 -29 22 -2 2 0 3
6 3 5 0 18 -10 29 -22z m-1936 -89 c-165 -320 -302 -676 -509 -1329 -44 -138
-27 -53 31 150 98 347 222 685 354 960 67 140 165 322 170 317 2 -1 -19 -45
-46 -98z m9166 -103 c149 -292 244 -530 356 -886 53 -170 140 -491 135 -496
-3 -3 -8 8 -11 23 -16 64 -153 500 -203 643 -95 273 -216 565 -335 805 -32 66
-52 111 -43 100 9 -11 55 -96 101 -189z m-1996 190 c0 -2 -8 -10 -17 -17 -16
-13 -17 -12 -4 4 13 16 21 21 21 13z m-3990 -11 c0 -3 -11 -27 -24 -53 -27
-53 -46 -132 -47 -195 l0 -42 -19 40 c-27 58 -24 34 7 -63 l27 -85 -24 -19
c-24 -19 -24 -19 -37 4 l-14 23 6 -23 c7 -26 -18 -62 -42 -62 -8 0 -31 37 -53
83 -21 45 -39 80 -39 77 -1 -9 26 -94 45 -139 l17 -44 -23 -19 c-23 -19 -25
-19 -38 -1 -13 17 -14 16 -7 -5 7 -25 -17 -62 -42 -62 -7 0 -36 46 -63 102
-60 122 -64 115 -10 -20 22 -54 40 -104 40 -109 0 -16 -42 -49 -47 -37 -2 6
-10 20 -19 30 -10 14 -10 9 3 -19 17 -37 17 -38 -9 -63 l-25 -26 -24 33 c-13
19 -38 61 -56 94 -18 33 -33 57 -33 54 0 -9 50 -129 71 -171 18 -35 18 -37 0
-59 -17 -21 -21 -22 -36 -9 -17 14 -17 13 -6 -9 18 -33 1 -44 -29 -18 -147
127 -160 390 -28 526 75 78 302 202 476 261 91 31 102 34 102 25z m-1090 -115
c148 -127 350 -313 346 -318 -3 -2 -63 49 -133 114 -70 66 -174 159 -230 208
-57 49 -103 92 -103 94 0 3 10 -3 23 -14 12 -11 56 -49 97 -84z m5040 96 c0
-2 -51 -49 -112 -103 -62 -54 -142 -126 -178 -159 -79 -75 -137 -123 -127
-107 9 15 198 187 282 258 32 28 75 65 95 82 36 33 40 36 40 29z m-587 -223
c14 -16 38 -55 54 -88 25 -53 28 -71 28 -160 0 -88 -4 -107 -28 -160 -42 -89
-90 -133 -214 -192 -93 -44 -260 -113 -274 -113 -2 0 -4 46 -4 103 0 98 -13
155 -59 260 -12 26 9 21 22 -5 10 -21 10 -21 6 7 -4 25 -1 32 22 43 17 7 32 8
37 3 5 -5 22 -45 38 -88 33 -93 37 -78 8 36 -20 80 -20 83 -2 96 26 20 32 18
43 -10 5 -14 12 -25 15 -25 2 0 0 12 -5 26 -14 36 -13 38 20 62 l29 22 19 -43
c10 -23 27 -67 37 -97 10 -30 20 -50 22 -44 2 6 -10 53 -26 105 -28 86 -29 95
-14 111 19 21 39 23 47 6 3 -7 4 -4 1 8 -4 14 4 29 25 49 l29 28 35 -76 c19
-41 37 -85 41 -97 4 -12 9 -20 11 -17 2 2 -12 50 -31 107 l-36 102 22 24 c12
13 26 21 30 18 5 -3 9 2 9 10 0 23 13 20 43 -11z m-2649 -110 c18 -54 21 -129
5 -170 -10 -28 -47 -73 -59 -73 -4 0 -17 34 -30 75 -13 41 -25 73 -28 71 -2
-3 6 -41 17 -87 20 -78 20 -83 3 -95 -9 -7 -23 -11 -29 -9 -7 2 -13 1 -13 -4
0 -12 -52 -33 -60 -24 -4 4 -19 37 -33 73 -31 77 -35 58 -7 -31 18 -59 18 -63
2 -75 -25 -19 -37 -17 -48 9 -11 23 -11 15 -1 -18 5 -15 0 -24 -22 -37 l-29
-16 -25 56 c-14 32 -30 74 -37 95 -6 20 -14 37 -16 37 -6 0 4 -40 32 -130 l24
-75 -22 -17 c-21 -15 -23 -15 -36 0 -12 15 -12 15 -7 -4 3 -14 -3 -28 -19 -43
l-24 -23 -15 24 c-8 12 -30 60 -48 105 -18 46 -34 81 -36 79 -4 -4 54 -182 68
-207 6 -12 1 -23 -16 -39 l-23 -22 -16 29 c-18 33 -21 26 -6 -13 9 -23 7 -31
-11 -50 -12 -13 -26 -21 -32 -17 -5 3 -29 47 -53 97 -50 103 -49 83 3 -48 l35
-88 -22 -22 c-14 -13 -24 -17 -27 -10 -2 6 -11 20 -19 30 -13 16 -13 15 1 -13
19 -40 19 -53 1 -53 -36 0 -102 125 -117 222 -10 61 -9 83 5 137 34 133 75
182 212 257 169 92 388 161 516 163 l46 1 16 -47z m-794 -180 c-57 -72 -85
-191 -78 -324 l6 -90 -30 41 c-65 89 -31 22 49 -94 37 -54 38 -58 21 -86 -12
-19 -13 -19 -38 3 -22 20 -23 20 -7 1 22 -26 21 -43 -1 -72 l-18 -24 -84 89
c-86 90 -78 70 17 -49 54 -66 54 -67 37 -93 l-17 -26 -30 28 -31 28 27 -33
c25 -32 26 -35 12 -63 -9 -16 -19 -29 -23 -29 -3 0 -47 39 -96 88 -91 89 -80
66 31 -63 l52 -60 -21 -35 c-33 -55 -34 -55 -87 -20 -81 51 -129 125 -152 230
-22 104 7 244 55 270 13 7 46 42 72 79 61 83 240 263 302 302 56 36 59 36 32
2z m2896 -151 c27 -53 29 -66 29 -167 0 -98 -3 -116 -26 -165 -41 -85 -138
-170 -195 -170 -10 0 -41 -14 -71 -30 -84 -48 -194 -88 -343 -125 -76 -19
-142 -35 -147 -35 -17 0 -43 94 -43 153 0 45 7 71 31 117 37 71 49 81 49 43 0
-15 11 -55 25 -88 28 -68 32 -63 10 11 -8 27 -15 68 -15 91 0 33 4 43 21 48
11 4 22 5 23 3 2 -1 8 -12 15 -23 10 -18 11 -17 5 7 -4 20 -1 29 14 37 12 6
25 11 31 11 12 0 51 -101 52 -138 1 -19 3 -22 6 -8 5 17 -11 120 -23 150 -3 7
7 18 21 24 33 15 33 15 38 -5 4 -14 5 -13 6 4 1 21 27 43 50 43 5 0 24 -42 40
-92 35 -109 40 -94 10 28 -21 83 -21 85 -3 99 26 19 29 19 42 -7 11 -22 11
-21 6 5 -5 21 -1 32 17 47 30 24 35 24 43 3 3 -10 19 -56 36 -103 35 -96 34
-55 -2 69 -21 72 -21 74 -3 87 25 19 33 18 40 -7 4 -11 9 -19 11 -16 3 2 0 16
-5 30 -8 20 -6 29 13 46 12 11 25 21 29 21 7 0 22 -32 68 -145 39 -97 36 -63
-6 63 l-36 105 23 24 22 24 13 -23 c7 -13 12 -19 13 -15 0 5 -5 17 -10 28 -6
11 -8 24 -4 30 10 17 48 -25 80 -89z m-2199 -64 c11 -13 33 -43 48 -68 31 -49
37 -120 15 -175 -11 -30 -12 -30 -28 -9 -41 50 -94 108 -87 94 5 -8 28 -44 52
-79 48 -71 50 -77 26 -110 l-16 -24 -19 23 c-10 12 -18 18 -18 13 0 -5 5 -14
12 -21 9 -9 6 -17 -12 -37 -12 -13 -26 -22 -30 -20 -5 3 -24 29 -43 57 -20 29
-48 67 -62 83 -22 26 -21 23 7 -25 17 -30 42 -71 55 -91 28 -43 28 -51 3 -74
-11 -10 -20 -13 -20 -7 0 7 -5 12 -11 12 -8 0 -7 -5 1 -16 11 -13 9 -19 -12
-40 l-25 -26 -49 59 c-27 32 -57 70 -67 83 l-18 25 12 -25 c7 -14 34 -57 60
-96 45 -67 47 -72 32 -93 l-15 -23 -31 29 -30 28 26 -36 27 -36 -22 -28 -22
-28 -65 69 c-65 70 -60 51 11 -43 39 -51 39 -52 22 -78 -16 -25 -17 -25 -38
-8 -21 18 -21 18 -3 -4 17 -20 17 -23 2 -52 -8 -17 -17 -31 -19 -31 -5 0 -108
107 -146 150 -21 24 -21 23 1 -10 13 -19 46 -64 75 -100 50 -64 51 -67 37 -94
l-15 -28 -26 24 -27 23 24 -27 c30 -34 20 -53 -18 -33 -53 27 -92 68 -123 129
-26 51 -32 76 -36 147 -5 107 16 190 54 216 14 9 41 37 60 62 55 73 193 209
269 267 68 51 183 124 195 124 4 0 16 -10 27 -22z m2673 -167 c0 -4 12 -26 26
-47 24 -35 26 -45 22 -119 -7 -139 -82 -262 -192 -313 -23 -11 -106 -33 -184
-49 l-142 -30 0 73 c0 90 -16 170 -36 178 -11 4 -7 13 18 40 18 19 35 32 37
30 3 -3 8 -39 12 -82 l6 -77 1 98 c1 64 7 108 17 126 15 30 45 49 45 29 0 -7
5 -6 13 3 6 8 25 21 40 27 35 15 34 15 46 -113 l8 -100 2 118 1 117 27 11 c29
11 39 5 46 -26 2 -11 3 -5 1 13 -2 25 2 36 22 48 49 33 53 23 75 -185 6 -62 7
-50 5 66 -3 116 -1 143 11 147 26 10 41 6 47 -11 4 -15 5 -15 4 2 0 11 0 23 1
28 1 10 21 9 21 -2z m-3309 -237 c11 -14 10 -19 -9 -34 -31 -25 -46 -106 -39
-210 7 -102 33 -176 88 -249 22 -29 38 -56 35 -59 -3 -3 -34 19 -68 48 -35 30
-74 63 -88 74 -13 12 11 -17 53 -63 42 -46 77 -89 77 -95 0 -6 -7 -20 -15 -30
-15 -19 -16 -19 -47 10 l-33 29 28 -31 c33 -36 33 -41 6 -70 l-22 -23 -76 67
c-79 69 -74 56 13 -36 l50 -52 -21 -22 c-22 -22 -22 -22 -45 -2 l-23 19 19
-23 c15 -17 17 -25 8 -34 -9 -9 -25 -2 -69 28 -95 65 -138 177 -114 297 11 52
123 261 227 425 36 56 44 61 65 36z m724 -62 c73 -51 105 -119 105 -227 l0
-59 -52 50 c-87 83 -97 84 -25 1 37 -43 67 -83 67 -90 0 -7 -6 -22 -14 -32
-12 -17 -16 -18 -32 -5 -18 14 -18 14 0 -7 18 -22 18 -23 -1 -52 l-19 -31 -69
70 c-69 69 -117 100 -59 38 17 -18 49 -56 71 -83 41 -51 41 -51 23 -75 l-18
-24 -24 19 -23 20 18 -21 c21 -26 21 -38 0 -70 l-16 -25 -51 53 c-78 81 -104
99 -55 38 88 -109 89 -112 69 -137 l-17 -22 -23 22 -23 22 16 -27 c16 -26 16
-30 1 -53 -9 -14 -19 -25 -23 -25 -3 0 -39 35 -80 77 -78 84 -77 75 7 -33 l53
-68 -48 -48 -47 -48 -69 67 -69 68 57 -74 56 -75 -23 -17 c-16 -13 -26 -15
-36 -7 -9 8 -11 7 -6 -6 11 -29 -21 -18 -69 24 -56 49 -71 91 -65 179 6 77 13
92 126 271 189 297 303 451 336 450 6 -1 29 -13 51 -28z m2013 -47 c6 -14 17
-53 23 -88 24 -128 -38 -284 -137 -346 -30 -20 -93 -40 -201 -66 -199 -47
-346 -96 -448 -149 -44 -22 -83 -42 -86 -44 -3 -1 -14 23 -24 53 -24 77 -17
211 14 276 24 50 76 117 84 109 3 -3 10 -50 15 -105 9 -87 10 -92 10 -35 1
170 0 166 27 178 34 16 33 16 38 -15 4 -27 4 -27 6 3 1 28 6 33 40 41 33 9 38
8 34 -6 -2 -9 1 -56 5 -106 l9 -90 2 103 c1 100 2 103 27 112 33 13 34 13 35
-7 0 -15 2 -14 9 3 7 18 58 39 68 29 2 -2 7 -43 11 -92 l8 -88 2 93 c1 90 2
93 28 103 20 7 28 6 35 -3 6 -10 8 -9 8 3 0 9 14 20 34 26 l35 11 6 -52 c20
-182 22 -188 24 -59 1 115 2 122 22 128 13 4 25 2 29 -5 6 -10 9 -8 11 4 2 10
18 24 36 31 l32 14 7 -47 c4 -26 10 -83 14 -127 7 -74 7 -70 9 57 1 128 2 138
22 148 26 14 30 10 40 -37 7 -32 7 -29 3 15 -4 40 -1 52 9 52 8 0 19 -11 25
-25z m-6444 -279 c-3 -15 -8 -25 -11 -23 -2 3 -1 17 3 31 3 15 8 25 11 23 2
-3 1 -17 -3 -31z m6816 -2 c7 -22 11 -66 8 -108 -6 -89 -40 -160 -100 -209
-42 -35 -65 -44 -270 -105 l-96 -29 -7 55 c-4 30 -13 72 -21 94 -8 22 -14 44
-14 49 0 16 18 9 23 -8 4 -14 5 -14 6 3 1 13 17 32 41 48 22 15 57 50 78 79
l37 52 5 -65 c6 -84 20 -46 20 58 0 51 4 72 13 72 6 0 22 3 35 6 18 5 22 2 23
-17 l1 -24 7 25 c5 17 16 26 39 31 l32 6 1 -61 c0 -33 4 -83 8 -111 6 -44 7
-37 13 59 6 111 12 126 51 126 13 0 17 -9 19 -42 1 -40 1 -41 5 -8 8 71 25 81
43 24z m-2220 -190 c22 -20 54 -66 72 -102 28 -56 33 -78 36 -156 2 -61 -2
-106 -11 -136 l-15 -45 -12 33 c-17 44 -88 192 -93 192 -2 0 11 -37 29 -82 18
-46 39 -106 45 -134 10 -44 9 -54 -6 -77 -23 -35 -30 -34 -43 6 -10 32 -10 31
-5 -9 4 -36 2 -44 -22 -63 -16 -12 -30 -20 -32 -18 -2 2 -13 37 -24 77 -11 40
-29 89 -40 109 -11 20 -17 27 -14 16 13 -41 43 -161 49 -192 5 -29 2 -35 -24
-48 -26 -14 -29 -13 -33 3 -4 14 -5 13 -6 -4 -1 -12 -12 -26 -26 -32 -36 -17
-45 -15 -45 7 0 24 -50 185 -55 179 -3 -2 2 -27 9 -56 24 -91 30 -153 15 -163
-25 -16 -47 -10 -52 14 -3 16 -5 14 -6 -9 -1 -25 -6 -33 -27 -38 -15 -4 -28
-5 -30 -3 -2 2 -14 42 -25 88 -12 46 -25 91 -31 99 -7 11 -7 9 -3 -7 10 -38
25 -137 25 -170 0 -28 -4 -33 -22 -33 -13 0 -41 -7 -63 -14 -22 -8 -41 -13
-42 -12 -2 1 -9 38 -18 81 -8 43 -17 80 -19 82 -2 3 -3 -35 -3 -84 l2 -88 -27
0 c-16 1 -28 -3 -28 -7 0 -4 -6 -8 -13 -8 -22 0 -40 50 -45 130 -7 126 16 158
172 239 88 46 149 91 215 160 53 56 145 176 195 254 20 31 41 57 46 57 6 0 28
-16 50 -36z m-720 -28 c0 -7 -7 -31 -16 -52 -23 -54 -24 -198 -1 -241 15 -29
29 -42 96 -92 l25 -18 -30 -16 c-16 -8 -41 -26 -56 -40 l-27 -26 -31 62 c-17
34 -40 73 -51 87 -19 23 -19 22 2 -20 12 -24 30 -68 40 -97 l18 -53 -28 -15
c-27 -13 -29 -13 -39 8 -11 21 -11 21 -6 -4 5 -23 2 -27 -27 -33 -18 -3 -33
-5 -34 -4 0 2 -16 34 -34 71 -18 38 -35 66 -38 64 -2 -3 1 -16 8 -28 6 -13 18
-45 25 -72 12 -47 12 -48 -13 -58 -14 -5 -27 -8 -28 -7 -1 2 -7 12 -14 23 -10
18 -11 17 -5 -7 16 -73 -56 13 -81 96 -24 78 0 123 124 246 42 41 105 112 140
158 63 80 81 96 81 68z m2380 -83 c18 -39 25 -163 11 -205 -16 -48 -51 -78
-153 -131 -167 -86 -281 -202 -431 -434 -15 -24 -32 -43 -37 -43 -23 0 -94 78
-122 134 -27 52 -32 75 -35 156 -3 67 0 108 10 140 14 41 16 43 23 21 10 -33
92 -201 98 -201 3 0 -6 24 -19 53 -13 28 -34 87 -46 130 -22 73 -22 79 -7 105
23 37 33 38 46 0 10 -33 10 -33 5 8 -4 36 -2 44 22 63 16 12 30 19 32 17 3 -2
9 -23 14 -45 11 -52 50 -154 55 -148 3 2 -4 38 -15 78 -34 132 -34 137 -1 154
26 14 29 13 33 -3 4 -13 5 -12 6 4 1 14 12 26 31 34 17 7 32 11 34 9 1 -2 10
-33 18 -69 9 -36 23 -81 32 -100 9 -19 14 -26 10 -15 -3 11 -13 60 -22 108
-14 77 -14 90 -1 98 25 16 47 10 52 -13 3 -17 5 -15 6 8 1 25 6 33 27 38 15 4
28 5 30 3 3 -2 14 -43 26 -91 12 -47 23 -85 25 -83 1 2 -2 40 -8 84 -14 93 -9
113 25 113 18 0 26 -6 29 -22 3 -16 4 -14 2 5 -1 23 3 29 29 35 30 8 31 7 40
-32 4 -23 14 -61 21 -86 12 -44 12 -44 11 45 l-1 90 28 0 c15 -1 27 3 27 7 0
19 28 5 40 -19z m366 -192 c36 -55 55 -123 44 -160 -13 -46 -65 -115 -124
-166 -29 -25 -88 -91 -131 -145 -97 -123 -116 -130 -79 -29 10 26 17 78 18
125 1 72 -2 85 -27 122 -15 23 -45 53 -67 67 -22 14 -40 27 -40 30 0 2 12 11
28 19 15 8 39 25 54 39 l28 26 30 -62 c16 -34 39 -73 50 -87 20 -24 20 -24 -1
20 -12 24 -30 68 -40 97 -17 51 -17 53 1 63 28 15 40 12 50 -12 9 -20 9 -18 4
9 -5 29 -3 32 26 38 17 4 32 5 34 3 1 -1 19 -38 40 -81 21 -43 40 -76 43 -74
2 3 -3 20 -13 39 -9 18 -23 55 -30 81 -12 47 -12 48 12 59 20 10 27 9 35 -3 7
-11 9 -11 9 4 0 28 18 20 46 -22z m-416 -228 c52 -45 70 -85 70 -158 0 -95
-14 -123 -238 -465 -106 -161 -199 -278 -222 -279 -24 -1 -92 51 -117 88 -31
46 -45 101 -41 166 l3 54 50 -47 c85 -80 92 -80 22 1 -37 43 -67 83 -67 90 0
7 8 24 17 37 10 14 16 26 15 28 -2 1 5 16 15 32 l17 30 80 -77 c89 -88 90 -81
0 27 l-62 76 18 24 18 24 24 -19 23 -20 -17 21 c-22 26 -22 38 -2 70 l17 25
78 -83 c75 -80 110 -104 51 -36 -52 59 -102 129 -102 141 0 7 7 20 15 31 13
18 15 17 40 -10 l26 -29 -21 31 c-21 30 -21 33 -5 58 10 14 20 26 24 26 3 0
39 -35 80 -77 81 -86 80 -83 -3 26 l-57 74 20 21 c20 20 21 20 42 0 l23 -19
-17 25 c-16 23 -16 25 5 47 l22 24 69 -68 69 -68 -57 74 -56 75 23 18 c22 17
24 17 41 -5 l18 -22 -10 22 c-14 28 -14 33 2 33 7 0 33 -17 57 -37z m-1425
-158 c30 -33 98 -112 152 -175 162 -189 469 -545 610 -707 133 -154 169 -200
161 -208 -2 -3 -108 116 -236 263 -127 147 -249 287 -270 312 -22 25 -106 122
-187 215 -82 94 -172 197 -200 230 -120 138 -135 157 -129 167 5 7 14 2 27
-13 10 -13 43 -51 72 -84z m-940 9 c4 -31 13 -74 21 -96 8 -22 14 -44 14 -49
0 -16 -18 -9 -23 9 -4 13 -5 13 -6 -4 -1 -13 -17 -32 -41 -48 -22 -14 -57 -49
-77 -77 l-38 -50 -5 63 c-6 81 -16 56 -19 -47 -1 -44 -3 -80 -4 -81 -1 -1 -17
-5 -34 -9 -31 -6 -33 -5 -34 22 l-1 28 -7 -30 c-5 -23 -13 -31 -39 -36 l-32
-6 -1 56 c-1 31 -5 83 -9 116 l-7 60 -2 -75 c-1 -41 -6 -95 -9 -120 -6 -40
-10 -45 -34 -48 -27 -3 -28 -1 -30 40 l-1 43 -6 -44 c-14 -105 -56 -24 -49 93
9 137 83 230 213 267 38 11 108 33 155 48 47 15 88 29 91 29 4 1 10 -23 14
-54z m780 -40 c13 -41 16 -78 13 -142 -3 -75 -9 -96 -37 -149 -32 -60 -66
-101 -76 -92 -2 3 -7 45 -11 94 -3 50 -8 92 -10 94 -2 2 -4 -45 -4 -106 0
-108 0 -110 -25 -121 -34 -16 -33 -17 -38 21 -4 31 -4 31 -5 -5 -2 -29 -6 -38
-20 -38 -10 0 -23 -5 -30 -12 -16 -16 -20 -1 -31 117 l-8 100 -3 -97 c-3 -127
-2 -120 -25 -129 -30 -12 -35 -11 -36 9 0 14 -2 13 -9 -4 -7 -18 -58 -39 -69
-29 -2 2 -6 42 -8 90 -3 47 -8 83 -10 81 -3 -3 -6 -43 -8 -91 -1 -47 -4 -87
-6 -89 -12 -11 -49 -16 -49 -7 0 6 -9 2 -20 -9 -11 -11 -29 -20 -39 -20 -21 0
-19 -6 -40 155 -8 68 -8 67 -10 -52 -1 -114 -2 -122 -22 -128 -11 -4 -23 -4
-26 -1 -3 3 -11 0 -17 -7 -6 -7 -23 -18 -38 -25 -26 -11 -27 -10 -33 31 -3 23
-10 78 -14 122 -8 79 -8 78 -10 -52 -1 -122 -3 -133 -21 -143 -11 -6 -25 -8
-30 -5 -6 3 -10 -1 -10 -9 0 -26 -27 -18 -39 12 -53 133 -27 293 63 386 24 24
57 51 73 59 16 9 113 36 216 61 212 53 321 90 422 145 39 21 73 39 76 40 4 0
14 -24 24 -55z m2040 14 c93 -62 139 -178 116 -293 -7 -33 -30 -93 -53 -134
-60 -110 -197 -339 -207 -345 -4 -3 -17 1 -27 9 -19 15 -18 15 3 34 43 36 56
180 28 299 -18 74 -31 103 -80 167 -20 26 -34 49 -31 52 5 6 32 -14 127 -97
l64 -55 -82 90 c-46 49 -83 94 -83 100 0 6 6 20 14 31 14 19 15 18 43 -6 l28
-25 -22 26 c-29 32 -29 40 0 67 l23 22 25 -26 c31 -34 119 -108 119 -100 0 3
-29 36 -65 73 -36 37 -65 71 -65 74 0 3 9 14 20 24 17 15 22 16 37 4 15 -11
16 -11 6 1 -17 18 -16 40 0 40 8 0 35 -14 62 -32z m-1258 -39 c-8 -5 -60 -63
-117 -129 -56 -66 -106 -120 -111 -120 -23 0 -8 23 76 116 6 6 44 50 85 98 63
72 76 83 78 64 2 -11 -3 -25 -11 -29z m128 -109 c10 -11 16 -20 13 -20 -3 0
-13 9 -23 20 -10 11 -16 20 -13 20 3 0 13 -9 23 -20z m80 -80 c10 -11 16 -20
13 -20 -3 0 -13 9 -23 20 -10 11 -16 20 -13 20 3 0 13 -9 23 -20z m762 -74
c13 -16 36 -52 50 -80 52 -103 39 -312 -22 -352 -13 -9 -49 -46 -78 -82 -123
-151 -282 -287 -416 -356 -32 -17 -34 -17 -58 6 -47 44 -75 105 -75 162 0 29
6 65 14 80 l14 28 40 -48 c65 -80 66 -81 58 -64 -4 8 -27 44 -51 79 -48 71
-50 77 -27 109 13 18 19 21 30 11 12 -9 13 -9 9 3 -3 7 5 24 18 36 l24 23 24
-33 c14 -18 32 -44 41 -58 9 -14 29 -38 43 -55 l27 -30 -20 30 c-11 17 -32 53
-47 80 -16 28 -33 58 -39 67 -8 13 -6 22 8 37 l18 20 20 -22 20 -22 -17 29
c-17 28 -16 29 7 53 l25 24 29 -33 c56 -62 68 -63 26 -2 -38 56 -40 63 -26 82
9 14 21 19 32 15 14 -5 15 -3 5 7 -10 10 -9 19 5 42 9 15 20 28 24 28 6 0 54
-53 138 -150 28 -33 -55 94 -93 142 -28 35 -28 37 -11 62 l17 27 26 -23 26
-23 -23 26 c-23 26 -23 28 -8 58 9 17 18 31 20 31 5 0 108 -107 146 -150 21
-24 21 -24 -1 10 -12 19 -46 64 -75 101 -50 63 -51 66 -37 93 l15 28 31 -28
32 -29 -29 32 c-15 17 -25 36 -21 42 9 15 80 -25 112 -63z m-2718 -348 c0 -5
10 -17 21 -28 l20 -20 -34 -35 -35 -35 -5 43 c-3 23 -7 58 -9 77 -2 19 -5 -7
-5 -58 -1 -59 -7 -103 -17 -121 -17 -34 -45 -48 -46 -23 0 15 -1 15 -8 -2 -8
-20 -68 -49 -76 -37 -2 5 -8 54 -11 110 -4 56 -9 99 -12 97 -2 -3 -4 -55 -4
-116 0 -110 -1 -112 -26 -121 -29 -11 -38 -5 -45 31 -3 14 -5 8 -4 -14 2 -34
-2 -42 -25 -55 -19 -11 -30 -13 -38 -5 -6 6 -17 67 -25 135 l-14 124 3 -137
c2 -76 1 -138 -3 -138 -3 0 -16 -3 -28 -6 -15 -4 -22 -1 -26 13 -3 12 -5 9 -6
-9 -1 -38 -19 -35 -36 6 -8 19 -19 37 -25 41 -16 10 -12 135 6 195 28 93 89
171 168 212 22 12 106 36 186 54 l145 31 6 -101 c4 -56 7 -104 8 -108z m994
101 c38 -44 66 -86 64 -92 -3 -7 -60 -75 -128 -152 -200 -230 -188 -218 -205
-204 -21 18 -18 24 34 61 39 29 53 48 80 111 37 88 39 126 13 227 -11 41 -18
76 -16 79 8 7 80 50 85 51 3 0 36 -36 73 -81z m2213 47 c100 -68 161 -204 151
-336 -5 -76 -31 -147 -57 -155 -10 -3 -44 -40 -76 -82 -68 -91 -217 -243 -295
-301 -61 -46 -84 -55 -52 -19 63 68 98 195 90 330 l-5 98 30 -40 c16 -23 32
-41 34 -41 7 0 0 11 -63 104 -58 86 -59 87 -41 116 12 19 13 19 43 -8 28 -26
29 -26 7 -1 -27 30 -27 46 -3 77 l18 24 83 -89 c93 -98 93 -96 -4 29 -66 87
-67 88 -50 113 l17 26 30 -28 31 -28 -27 33 c-25 32 -26 35 -12 63 9 16 19 29
23 29 3 0 45 -37 91 -82 92 -90 91 -84 -7 34 -35 42 -64 80 -63 85 0 14 42 83
49 83 4 0 30 -15 58 -34z m-1276 -61 c0 -39 47 -120 93 -162 26 -24 50 -43 54
-43 5 0 15 -5 23 -10 12 -8 10 -14 -12 -37 -15 -15 -28 -42 -30 -60 -3 -31 -5
-29 -103 84 -154 177 -144 152 -88 216 48 55 62 57 63 12z m-1157 -22 c22 -61
22 -158 1 -198 -9 -16 -23 -42 -31 -57 -21 -40 -33 -43 -33 -10 0 17 -9 49
-21 73 -16 35 -19 38 -14 14 3 -16 9 -55 12 -86 5 -52 3 -58 -17 -64 -12 -4
-24 -5 -27 -2 -2 3 -13 -3 -24 -14 -10 -10 -25 -19 -33 -19 -17 0 -39 54 -56
133 -6 32 -14 57 -16 54 -4 -4 22 -165 31 -189 4 -9 -4 -19 -20 -26 -33 -15
-33 -15 -38 6 -4 13 -5 12 -6 -5 -1 -21 -27 -43 -50 -43 -5 0 -24 42 -40 93
-36 109 -39 99 -10 -25 20 -87 20 -90 2 -103 -24 -19 -28 -19 -41 8 -10 20
-11 20 -6 -8 3 -24 -1 -34 -21 -48 -15 -11 -28 -17 -30 -15 -1 1 -19 46 -39
98 -38 99 -39 78 -3 -49 20 -72 20 -74 2 -87 -25 -19 -33 -18 -40 7 -4 11 -9
19 -11 16 -3 -2 0 -16 5 -30 8 -20 6 -29 -13 -46 -12 -11 -25 -21 -29 -21 -7
0 -22 32 -68 145 -38 95 -36 71 5 -60 33 -103 34 -109 18 -131 -21 -29 -29
-30 -37 -3 -4 11 -9 18 -12 16 -2 -3 1 -15 7 -27 17 -33 -2 -45 -27 -18 -12
13 -34 48 -50 78 -24 47 -28 70 -31 151 -3 84 -1 104 21 157 41 102 102 160
204 194 31 10 66 24 78 32 57 38 282 117 375 132 14 3 39 8 55 13 54 16 60 13
78 -36z m341 -176 c-141 -168 -309 -355 -316 -351 -4 3 70 95 164 205 95 110
174 195 176 189 2 -5 -9 -25 -24 -43z m1700 -102 c15 -19 39 -61 53 -93 51
-111 31 -274 -46 -378 -77 -106 -423 -253 -637 -271 l-71 -6 -17 48 c-20 59
-21 134 -2 178 13 31 52 74 60 66 2 -2 15 -40 29 -84 31 -96 34 -81 7 29 -11
44 -19 80 -18 81 29 22 44 22 56 2 12 -21 12 -21 6 5 -5 24 -2 29 21 38 15 6
30 8 34 5 3 -4 18 -37 33 -73 32 -79 37 -61 8 30 -18 59 -19 64 -3 76 24 17
30 15 48 -15 9 -16 13 -19 10 -8 -16 46 -15 50 14 67 l30 16 29 -71 c16 -40
34 -85 40 -102 22 -64 10 -2 -18 91 l-29 99 22 17 c20 15 22 15 35 0 12 -15
12 -15 7 4 -3 14 3 28 19 43 l24 22 16 -23 c9 -13 30 -60 48 -106 17 -45 32
-81 34 -79 2 2 -13 54 -32 116 l-37 113 21 20 20 20 17 -28 c16 -28 16 -25 1
22 -4 14 1 27 18 43 l24 22 20 -33 c12 -19 35 -63 52 -98 38 -81 29 -43 -17
74 l-35 88 22 22 c14 13 24 17 27 10 2 -6 11 -20 19 -30 13 -16 13 -15 -1 13
-8 18 -15 37 -15 43 0 22 29 9 54 -25z m-2932 -180 c-4 -71 0 -98 22 -169 14
-47 31 -88 36 -91 16 -10 12 -38 -5 -31 -9 3 -15 0 -15 -8 0 -13 -56 -43 -64
-35 -2 2 -18 42 -34 89 -36 98 -41 87 -12 -25 25 -96 25 -92 -2 -106 -18 -10
-24 -8 -35 7 -13 18 -14 17 -8 -7 5 -22 1 -30 -24 -48 -36 -26 -33 -29 -76 93
-39 108 -43 81 -6 -35 28 -86 29 -95 14 -111 -19 -21 -39 -23 -47 -5 -3 6 -4
3 -1 -9 4 -14 -4 -29 -25 -49 l-30 -28 -31 69 c-18 38 -40 92 -50 119 -9 28
-18 45 -18 39 -1 -14 40 -143 63 -201 17 -40 17 -42 -5 -67 -12 -14 -26 -23
-31 -20 -4 3 -8 -2 -8 -10 0 -43 -58 17 -97 99 -25 53 -28 71 -28 160 0 86 4
108 26 156 36 76 80 123 158 167 61 34 303 138 327 141 7 1 9 -27 6 -84z m836
-73 c16 -54 15 -102 -4 -147 l-16 -38 -24 29 c-13 16 -33 44 -45 62 -11 17
-23 32 -25 32 -6 0 22 -54 53 -103 19 -30 21 -42 13 -57 -13 -24 -18 -25 -44
-2 -20 17 -20 17 -4 -9 16 -25 16 -28 -6 -48 l-23 -22 -36 40 c-20 22 -48 58
-63 81 -15 22 -29 40 -31 40 -6 0 41 -81 80 -139 l29 -43 -21 -22 -22 -21 -20
25 -21 25 18 -32 c17 -31 17 -33 -1 -53 -10 -11 -22 -20 -26 -20 -5 0 -36 35
-70 78 -34 42 -64 79 -67 82 -14 14 26 -53 70 -116 43 -62 48 -74 39 -93 -15
-26 -19 -26 -50 2 l-25 22 23 -32 c21 -31 21 -34 5 -65 l-16 -32 -47 50 c-26
27 -62 67 -80 89 -47 56 -28 24 38 -65 75 -100 73 -95 59 -124 -11 -25 -12
-25 -30 -10 -21 20 -24 8 -4 -15 12 -14 12 -20 -3 -49 l-17 -33 -84 83 c-92
91 -92 89 -4 -21 32 -40 63 -78 67 -85 5 -6 4 -24 -3 -40 l-11 -29 -37 34 -37
34 33 -35 c32 -36 41 -60 22 -60 -37 0 -127 81 -168 150 -61 103 -66 233 -14
342 35 74 138 189 249 279 92 73 132 99 238 156 l80 43 36 -39 c19 -22 41 -57
47 -79z m911 -167 c340 -389 317 -358 282 -370 -54 -17 -101 -114 -101 -207 0
-27 -2 -30 -22 -23 -13 4 -53 9 -91 12 -82 6 -102 -4 -154 -83 l-37 -55 -30
35 c-17 19 -44 38 -61 42 -16 4 -39 13 -50 20 -34 24 -106 17 -167 -15 l-56
-30 -6 42 c-18 111 -74 163 -190 174 -36 3 -66 10 -66 14 0 11 54 75 339 403
l224 258 36 -43 c20 -24 87 -102 150 -174z m1768 145 c8 -8 28 -42 45 -75 30
-56 32 -67 33 -165 0 -94 -3 -111 -27 -160 -15 -31 -42 -71 -60 -89 -40 -42
-169 -126 -263 -174 -98 -49 -322 -127 -313 -109 42 79 67 172 69 251 l1 36
19 -40 c27 -58 23 -28 -9 69 l-29 84 26 12 c21 10 27 9 39 -7 12 -16 13 -16 7
9 -6 21 -2 30 19 44 15 9 28 15 30 13 13 -16 57 -103 71 -142 10 -26 20 -46
22 -44 4 4 -27 103 -52 165 -18 43 -17 44 4 65 22 22 22 22 37 2 15 -19 15
-19 9 5 -5 19 0 31 19 49 l24 23 15 -24 c8 -12 31 -54 51 -93 41 -79 38 -55
-5 50 -16 38 -29 75 -29 81 0 17 42 51 47 38 2 -6 11 -20 19 -30 12 -15 12
-12 -1 15 -16 32 -16 35 2 59 11 14 24 27 29 29 9 3 72 -102 102 -170 7 -16
15 -27 18 -24 3 3 -17 55 -44 116 -49 110 -50 112 -31 134 l19 22 20 -25 21
-25 -16 33 c-30 62 5 58 62 -8z m-3406 -301 c-26 -58 -40 -152 -33 -214 5 -48
4 -49 -13 -35 -14 12 -13 5 7 -30 37 -64 53 -119 39 -133 -7 -7 -17 -5 -32 9
l-22 19 17 -26 c16 -26 16 -28 -7 -54 l-24 -28 -59 69 c-32 38 -67 80 -77 94
-42 59 1 -13 59 -95 62 -91 62 -91 44 -115 l-18 -24 -24 19 -23 20 20 -23 c19
-23 19 -23 0 -59 l-20 -36 -74 79 c-73 78 -69 64 15 -46 40 -54 41 -57 27 -84
l-15 -28 -36 33 -37 34 34 -37 34 -37 -17 -36 c-10 -20 -21 -34 -24 -31 -4 4
-45 43 -91 89 -92 90 -91 84 11 -39 38 -45 68 -84 68 -87 0 -3 -5 -18 -10 -33
l-11 -27 -32 29 -32 29 28 -31 c52 -58 28 -71 -44 -25 -55 35 -101 88 -137
161 -24 49 -27 66 -27 160 0 95 3 110 27 155 46 86 199 245 323 335 71 52 197
131 202 126 2 -1 -6 -23 -16 -47z m745 -31 c61 -41 94 -97 94 -160 0 -46 -1
-47 -25 -38 -13 5 -43 21 -67 36 -25 16 -37 20 -29 10 7 -9 36 -31 62 -48 48
-31 57 -49 40 -77 -7 -10 -13 -11 -32 -1 l-24 11 23 -18 c21 -17 22 -22 11
-46 -15 -32 -24 -31 -116 18 -35 18 -63 31 -63 29 0 -3 71 -51 149 -101 2 -1
0 -14 -3 -29 -6 -21 -11 -25 -29 -21 -21 6 -21 5 -4 -8 15 -10 17 -21 12 -44
-4 -17 -12 -31 -19 -31 -6 0 -44 16 -84 35 -40 19 -72 32 -72 30 0 -6 100 -68
133 -83 20 -9 27 -17 23 -28 -3 -9 -6 -22 -6 -30 0 -11 -6 -13 -22 -9 -23 7
-23 7 -2 -8 16 -12 20 -24 16 -47 -4 -29 -7 -31 -33 -26 -16 3 -64 21 -107 41
-97 44 -65 17 49 -40 83 -42 86 -44 81 -75 -4 -25 -8 -30 -26 -25 -20 5 -20 4
2 -6 17 -9 22 -21 22 -51 0 -37 -1 -38 -27 -32 -16 4 -65 21 -110 40 -46 18
-83 30 -83 28 0 -3 52 -30 115 -60 110 -52 115 -56 115 -85 0 -24 -3 -30 -16
-25 -9 3 -28 8 -42 11 -15 3 -7 -2 17 -12 25 -10 43 -22 40 -28 -8 -19 -114
-9 -162 14 -125 61 -209 186 -215 321 -3 62 2 91 27 168 41 124 89 225 154
324 67 103 153 208 171 208 8 0 36 -15 62 -32z m2049 -84 c51 -163 -31 -370
-175 -444 -96 -49 -377 -52 -547 -6 -51 14 -114 36 -140 48 l-48 23 2 65 c3
76 35 130 93 162 l35 18 5 -72 5 -73 8 60 c5 33 9 67 10 75 1 8 14 16 30 18
23 3 27 0 28 -25 l2 -28 4 28 c4 24 9 27 40 27 l36 0 -5 -102 c-5 -108 5 -87
18 35 4 37 9 67 13 67 3 0 16 3 29 6 20 6 22 3 24 -32 l1 -39 4 36 c3 31 9 38
31 42 15 3 30 3 34 0 5 -2 9 -46 9 -96 2 -83 2 -87 9 -42 5 28 9 73 9 101 1
50 2 52 31 56 28 4 30 3 32 -31 l1 -36 4 37 c3 30 9 38 35 47 17 6 32 10 33 9
2 -2 5 -43 8 -91 3 -49 8 -91 11 -95 3 -3 6 40 6 95 l0 101 29 10 c28 10 30 9
34 -16 4 -26 4 -26 6 3 1 25 7 33 33 43 17 6 34 10 36 7 3 -2 8 -50 11 -107 6
-89 8 -98 15 -64 5 21 6 73 3 116 -5 75 -4 78 19 89 32 14 34 14 35 -6 1 -18
2 -16 14 25 9 26 23 10 40 -44z m594 -264 c58 -135 26 -300 -81 -416 -57 -61
-123 -90 -263 -115 -125 -21 -380 -30 -461 -15 l-40 7 22 67 c13 37 26 95 30
129 6 57 8 62 38 74 17 7 47 25 67 41 l37 28 6 -23 c3 -12 6 -53 7 -92 l2 -70
11 100 c11 98 12 100 38 103 19 2 28 -2 31 -15 4 -15 5 -14 6 4 1 15 10 23 32
28 17 4 33 4 37 0 3 -3 8 -37 10 -76 6 -98 22 -86 22 16 0 67 3 85 14 85 8 0
21 3 29 6 11 4 17 -2 20 -18 4 -21 4 -21 6 4 1 20 9 29 32 37 18 6 33 11 35
11 6 0 16 -69 23 -161 l8 -94 2 136 c1 135 1 136 26 147 33 15 33 15 38 -5 4
-15 5 -14 6 3 1 12 13 27 29 35 15 7 30 15 34 17 8 4 15 -31 33 -173 l14 -110
-4 125 c-3 69 -8 136 -11 151 -4 20 -1 27 21 37 36 17 43 15 48 -10 4 -21 4
-21 4 2 1 43 3 50 12 50 5 0 18 -22 30 -50z m-2371 -15 c28 -17 72 -80 72
-104 0 -7 -27 -12 -72 -13 l-73 -1 78 -10 c75 -10 77 -11 77 -38 0 -21 -6 -29
-22 -32 -20 -4 -19 -4 5 -6 23 -1 27 -5 27 -30 0 -32 -13 -41 -68 -42 -80 -2
-88 -17 -9 -18 42 -1 77 -4 77 -8 0 -5 3 -18 6 -30 5 -19 2 -23 -17 -24 l-24
-1 24 -7 c16 -4 27 -17 32 -34 9 -35 -5 -42 -111 -55 l-75 -10 99 0 c89 1 101
-1 107 -18 13 -33 10 -43 -18 -47 -27 -4 -27 -4 3 -6 23 -1 34 -8 43 -27 19
-41 11 -45 -129 -65 -43 -6 -31 -7 53 -5 l108 3 14 -28 c14 -26 13 -28 -8 -32
-20 -4 -20 -4 3 -6 22 -1 60 -42 60 -64 0 -5 -124 -35 -195 -46 -50 -9 -50 -9
-10 -10 36 0 79 5 195 24 30 5 38 2 53 -20 18 -25 18 -25 -5 -35 -22 -9 -21
-9 6 -7 54 4 40 -22 -31 -55 -59 -28 -78 -32 -144 -32 -122 2 -234 63 -298
163 -85 131 -92 478 -16 720 l27 84 63 -5 c34 -3 76 -14 93 -23z m-838 -194
c53 -36 55 -39 61 -92 4 -30 10 -71 14 -93 4 -22 4 -37 -1 -35 -30 13 -124 65
-149 82 l-30 21 19 -22 c10 -12 47 -41 83 -64 57 -38 63 -45 58 -68 -9 -33
-10 -34 -35 -20 -12 6 -24 10 -26 7 -2 -2 7 -9 20 -17 22 -11 23 -15 14 -44
-6 -17 -12 -32 -13 -34 -4 -5 -145 67 -180 91 -22 16 -26 17 -16 4 7 -9 53
-42 101 -73 82 -53 87 -58 80 -83 -7 -27 -10 -28 -45 -16 -18 7 -6 -4 33 -30
7 -5 -12 -65 -22 -65 -6 0 -55 22 -109 48 -53 26 -91 42 -84 35 13 -13 171
-109 189 -115 6 -2 8 -16 3 -36 l-7 -32 -34 15 c-19 8 -32 11 -30 6 3 -5 19
-14 36 -21 30 -12 38 -37 24 -74 -5 -13 -12 -13 -55 4 -27 11 -81 36 -121 55
-104 51 -44 7 75 -55 94 -50 97 -52 97 -85 0 -28 -3 -33 -17 -29 -17 5 -17 5
0 -6 9 -6 17 -18 17 -26 0 -12 -9 -14 -47 -9 -105 15 -222 95 -278 190 -36 62
-58 158 -51 217 17 128 150 401 268 551 l30 37 36 -40 c21 -23 62 -58 92 -79z
m1569 80 c12 -8 10 -20 -17 -70 -18 -34 -30 -61 -28 -61 3 0 79 110 81 117 1
1 11 0 24 -4 18 -5 22 -11 18 -32 -5 -23 -4 -24 8 -8 11 15 17 16 39 6 32 -15
30 -23 -25 -129 -43 -82 -21 -61 38 35 20 33 37 61 38 63 1 1 14 -3 28 -9 22
-10 24 -15 16 -31 -6 -11 -8 -22 -6 -25 3 -2 8 5 12 16 7 23 26 27 55 11 19
-10 19 -11 -1 -62 -11 -28 -31 -70 -45 -94 -14 -24 -24 -44 -21 -44 7 0 79
117 95 153 17 40 79 33 67 -9 -4 -14 -3 -13 6 3 9 18 17 21 43 16 17 -3 32 -7
34 -8 5 -4 -36 -112 -63 -165 -15 -30 -20 -48 -12 -40 8 8 36 57 62 108 43 86
48 92 77 92 20 0 29 -4 25 -12 -2 -7 -7 -24 -11 -38 -4 -17 -1 -15 9 8 13 27
20 32 50 32 19 0 35 -4 35 -10 0 -8 -43 -128 -66 -184 -5 -13 -4 -17 3 -13 6
4 30 51 53 106 38 89 45 100 71 103 24 4 29 1 30 -16 0 -20 1 -20 9 2 5 12 15
22 21 22 8 0 10 -19 7 -65 -14 -167 -158 -315 -323 -332 -42 -4 -69 -1 -117
17 -193 70 -347 181 -459 333 -64 85 -65 93 -17 159 40 56 116 85 157 59z
m-364 -56 c22 -14 36 -25 30 -25 -5 0 -23 -11 -38 -24 -16 -13 -38 -32 -50
-41 -12 -9 0 -5 26 9 72 38 109 42 126 15 12 -20 11 -24 -10 -41 l-24 -19 24
12 c21 10 26 9 38 -7 7 -10 13 -23 13 -30 0 -16 -41 -45 -103 -74 -26 -12 -46
-24 -44 -26 5 -5 106 33 133 51 31 20 37 19 53 -7 12 -19 11 -23 -10 -40 l-24
-19 28 13 c26 11 31 10 47 -12 24 -31 15 -42 -75 -95 -95 -55 -71 -56 31 -1
83 46 87 47 104 29 17 -17 17 -19 -4 -42 l-21 -24 28 18 c27 17 28 17 52 -5
l25 -24 -22 -23 c-12 -13 -50 -42 -85 -65 -35 -23 -63 -43 -63 -45 0 -7 87 41
140 77 56 37 56 37 79 18 l24 -19 -24 -26 -24 -26 31 22 c31 22 33 22 58 6 15
-10 25 -23 23 -29 -3 -10 -81 -78 -153 -134 -25 -20 -26 -21 -4 -11 30 14 106
66 158 108 35 27 39 28 66 14 l28 -15 -28 -31 -29 -32 31 28 c57 51 71 31 25
-36 -42 -61 -68 -82 -142 -117 -56 -26 -79 -31 -143 -31 -128 -1 -230 50 -263
130 -9 20 -28 52 -43 71 -96 122 -175 295 -204 450 -16 83 -16 83 6 99 79 58
139 65 203 26z m-991 -440 c57 -56 107 -88 184 -116 17 -6 32 -17 32 -24 0
-15 -40 -12 -150 10 -36 7 -66 12 -68 10 -5 -4 98 -34 164 -47 50 -10 54 -13
54 -39 0 -26 -4 -29 -32 -30 l-33 -1 30 -7 c26 -5 30 -11 33 -44 4 -43 7 -42
-103 -26 -42 6 -79 8 -82 6 -4 -5 36 -14 175 -43 17 -3 22 -11 22 -34 0 -26
-4 -30 -27 -31 l-28 -1 30 -7 c25 -5 31 -11 33 -40 l3 -34 -108 5 c-115 5
-102 -2 47 -26 72 -11 75 -13 81 -44 6 -29 4 -32 -20 -33 l-26 -2 25 -4 c31
-6 36 -11 44 -45 l6 -28 -107 -1 c-120 -1 -102 -13 40 -25 71 -6 80 -9 88 -31
14 -37 11 -43 -18 -44 -26 -2 -26 -2 5 -8 49 -9 44 -24 -13 -39 -154 -40 -336
48 -422 203 l-28 50 1 195 c0 176 3 207 28 314 15 66 32 131 38 145 l10 26 16
-25 c9 -14 43 -52 76 -85z m3010 -172 c86 -100 156 -185 156 -189 0 -8 -334
376 -339 390 -5 17 15 -6 183 -201z m-860 152 l-2 -30 11 28 c11 28 38 35 66
18 16 -10 6 -61 -29 -154 -11 -28 -18 -52 -16 -54 5 -5 86 181 86 196 0 8 12
11 33 9 27 -3 32 -7 30 -28 -3 -25 -3 -25 7 -2 7 17 18 22 46 22 l36 0 -7 -37
c-4 -21 -17 -72 -31 -113 -13 -41 -22 -76 -20 -78 4 -4 71 163 80 201 4 18 13
27 25 27 11 0 27 3 36 7 15 5 16 1 11 -28 l-5 -34 11 33 c10 29 15 32 50 32
44 0 43 14 6 -134 -10 -43 -17 -80 -15 -83 3 -2 22 48 43 112 21 65 43 115 50
115 7 0 19 3 28 6 12 5 16 -1 17 -22 1 -29 1 -29 8 -4 4 14 15 27 25 28 18 4
19 -2 14 -75 -13 -184 -154 -338 -328 -359 -135 -16 -446 75 -658 191 -92 51
-91 66 3 70 84 3 161 30 240 86 32 22 55 34 52 27 -39 -99 -46 -119 -38 -114
4 3 26 44 47 91 35 78 41 86 64 83 21 -3 25 -8 24 -33z m-2906 -13 c-13 -15
-43 -47 -65 -72 -83 -94 -124 -134 -67 -65 113 135 148 174 153 169 2 -2 -7
-17 -21 -32z m1113 -134 c18 -44 125 -156 173 -180 44 -23 43 -23 -25 -38 -38
-8 -35 -9 27 -4 72 5 164 -10 164 -28 0 -5 -10 -13 -22 -19 -22 -9 -22 -9 3
-6 22 3 30 -2 42 -29 l16 -32 -69 -21 c-38 -12 -89 -24 -115 -28 -25 -3 -43
-8 -41 -11 3 -2 57 3 121 13 113 17 117 17 130 -1 20 -26 18 -33 -7 -45 -22
-9 -21 -9 3 -4 21 4 31 -1 43 -20 9 -13 16 -29 16 -34 0 -8 -57 -35 -71 -33
-3 0 -32 -8 -65 -18 -64 -20 -47 -26 26 -9 25 6 56 13 70 15 14 3 33 7 43 10
11 4 25 -3 37 -18 18 -22 18 -24 2 -37 -15 -12 -15 -13 5 -8 17 4 28 -2 44
-25 12 -16 19 -32 15 -35 -3 -3 -49 -20 -103 -39 -117 -39 -103 -43 33 -9 98
25 99 25 118 6 16 -16 17 -23 7 -35 -10 -12 -9 -14 9 -9 34 9 21 -27 -19 -54
-76 -51 -203 -67 -310 -38 -65 17 -149 71 -186 119 -64 84 -144 328 -171 524
-18 137 -17 117 -15 170 1 39 3 42 30 42 23 0 31 -6 42 -32z m-1301 -81 c0 -2
-15 -16 -32 -33 l-33 -29 29 33 c28 30 36 37 36 29z m2604 -6 c7 -10 -23 -50
-93 -125 -63 -68 -6 -28 68 47 48 50 56 54 77 45 29 -13 30 -24 7 -52 -14 -17
-13 -16 9 2 25 23 27 23 58 7 l31 -16 -33 -44 c-18 -24 -53 -67 -77 -97 -33
-39 -20 -29 47 36 87 86 92 89 118 78 26 -12 26 -13 9 -40 l-18 -27 25 23 c21
19 28 21 56 11 18 -6 32 -13 32 -16 0 -4 -56 -82 -117 -163 -29 -38 60 49 115
113 28 33 37 38 62 32 36 -8 36 -8 9 -48 l-21 -32 29 33 c26 30 30 31 65 22
l38 -11 -17 -27 c-34 -53 -86 -127 -103 -147 -9 -11 -20 -27 -24 -35 -12 -23
78 78 126 143 39 51 46 57 72 52 41 -7 41 -9 16 -49 -12 -20 -19 -36 -17 -36
3 0 15 16 27 35 27 43 55 48 45 8 -31 -130 -169 -250 -312 -273 -110 -18 -190
9 -353 121 -100 69 -120 85 -223 187 l-78 76 61 12 c76 16 167 65 222 119 47
45 54 50 62 36z m-2664 -64 c0 -2 -17 -19 -37 -38 l-38 -34 34 38 c33 34 41
42 41 34z m2036 -28 c3 -6 29 -21 57 -34 l51 -22 -45 -26 c-24 -14 -56 -29
-72 -32 -15 -4 -30 -11 -33 -16 -3 -5 32 5 78 22 107 40 153 47 162 24 4 -11
0 -23 -11 -32 -17 -13 -16 -13 3 -4 17 8 26 6 45 -15 29 -31 24 -36 -86 -99
-44 -25 -76 -45 -72 -45 4 0 51 20 104 45 l96 45 24 -22 23 -22 -30 -19 c-40
-26 -38 -30 5 -10 35 17 36 17 61 -8 l25 -26 -63 -40 c-35 -23 -81 -51 -103
-62 -24 -13 -30 -19 -15 -15 14 3 67 28 117 54 l93 47 20 -22 21 -23 -28 -21
-28 -21 36 16 c34 15 38 15 63 -1 14 -10 26 -21 26 -25 0 -4 -39 -34 -87 -66
-49 -31 -92 -62 -98 -67 -15 -14 91 40 158 80 56 34 58 34 83 18 l26 -17 -24
-26 -23 -26 31 22 c20 14 35 18 45 12 11 -7 1 -22 -47 -68 -182 -177 -481
-132 -594 89 -10 19 -49 76 -87 126 -63 85 -153 232 -153 252 0 4 27 14 60 20
33 7 83 25 112 41 61 33 65 34 74 19z m2169 -49 c10 -11 16 -20 13 -20 -3 0
-13 9 -23 20 -10 11 -16 20 -13 20 3 0 13 -9 23 -20z m-4275 -3 c0 -2 -10 -12
-22 -23 l-23 -19 19 23 c18 21 26 27 26 19z m4331 -64 c13 -16 12 -17 -3 -4
-10 7 -18 15 -18 17 0 8 8 3 21 -13z m-4578 -451 c38 -39 43 -80 19 -136 -25
-55 -71 -86 -127 -86 -63 1 -95 37 -95 107 0 109 135 186 203 115z m4897 6
c104 -72 86 -228 -27 -228 -73 0 -143 68 -143 138 0 39 23 87 47 101 31 18 88
12 123 -11z"/>
<path d="M6848 10093 c7 -3 16 -2 19 1 4 3 -2 6 -13 5 -11 0 -14 -3 -6 -6z"/>
<path d="M6878 9643 c7 -3 16 -2 19 1 4 3 -2 6 -13 5 -11 0 -14 -3 -6 -6z"/>
<path d="M7498 9873 c6 -2 18 -2 25 0 6 3 1 5 -13 5 -14 0 -19 -2 -12 -5z"/>
<path d="M4996 9435 c-9 -26 -7 -32 5 -12 6 10 9 21 6 23 -2 3 -7 -2 -11 -11z"/>
<path d="M6758 9293 c7 -3 16 -2 19 1 4 3 -2 6 -13 5 -11 0 -14 -3 -6 -6z"/>
<path d="M7018 8873 c7 -3 16 -2 19 1 4 3 -2 6 -13 5 -11 0 -14 -3 -6 -6z"/>
<path d="M6116 8775 c-9 -26 -7 -32 5 -12 6 10 9 21 6 23 -2 3 -7 -2 -11 -11z"/>
<path d="M7260 8836 c0 -2 7 -7 16 -10 8 -3 12 -2 9 4 -6 10 -25 14 -25 6z"/>
<path d="M5772 8620 c0 -14 2 -19 5 -12 2 6 2 18 0 25 -3 6 -5 1 -5 -13z"/>
<path d="M5441 8604 c0 -11 3 -14 6 -6 3 7 2 16 -1 19 -3 4 -6 -2 -5 -13z"/>
<path d="M8151 7944 c0 -11 3 -14 6 -6 3 7 2 16 -1 19 -3 4 -6 -2 -5 -13z"/>
<path d="M5581 8164 c0 -11 3 -14 6 -6 3 7 2 16 -1 19 -3 4 -6 -2 -5 -13z"/>
<path d="M4750 7317 c0 -2 15 -16 33 -33 l32 -29 -29 33 c-28 30 -36 37 -36
29z"/>
<path d="M5330 7416 c0 -2 8 -10 18 -17 15 -13 16 -12 3 4 -13 16 -21 21 -21
13z"/>
<path d="M5566 6688 c10 -14 21 -24 23 -22 3 3 -6 15 -18 27 l-24 22 19 -27z"/>
<path d="M7652 7290 c0 -14 2 -19 5 -12 2 6 2 18 0 25 -3 6 -5 1 -5 -13z"/>
<path d="M5532 6220 c0 -14 2 -19 5 -12 2 6 2 18 0 25 -3 6 -5 1 -5 -13z"/>
<path d="M7151 6644 c0 -11 3 -14 6 -6 3 7 2 16 -1 19 -3 4 -6 -2 -5 -13z"/>
<path d="M7130 6431 c0 -6 4 -13 10 -16 6 -3 7 1 4 9 -7 18 -14 21 -14 7z"/>
<path d="M5342 5700 c0 -14 2 -19 5 -12 2 6 2 18 0 25 -3 6 -5 1 -5 -13z"/>
<path d="M5182 5630 c0 -19 2 -27 5 -17 2 9 2 25 0 35 -3 9 -5 1 -5 -18z"/>
<path d="M7490 5656 c0 -2 8 -10 18 -17 15 -13 16 -12 3 4 -13 16 -21 21 -21
13z"/>
<path d="M7520 5483 c13 -18 25 -33 27 -33 8 0 -17 38 -33 51 -11 9 -9 2 6
-18z"/>
<path d="M8190 5737 c0 -2 15 -16 33 -33 l32 -29 -29 33 c-28 30 -36 37 -36
29z"/>
<path d="M5261 5334 c0 -11 3 -14 6 -6 3 7 2 16 -1 19 -3 4 -6 -2 -5 -13z"/>
<path d="M7411 4834 c0 -11 3 -14 6 -6 3 7 2 16 -1 19 -3 4 -6 -2 -5 -13z"/>
<path d="M4681 4964 c0 -11 3 -14 6 -6 3 7 2 16 -1 19 -3 4 -6 -2 -5 -13z"/>
<path d="M7552 4400 c0 -14 2 -19 5 -12 2 6 2 18 0 25 -3 6 -5 1 -5 -13z"/>
<path d="M5110 3390 c8 -5 20 -10 25 -10 6 0 3 5 -5 10 -8 5 -19 10 -25 10 -5
0 -3 -5 5 -10z"/>
<path d="M5438 3493 c7 -3 16 -2 19 1 4 3 -2 6 -13 5 -11 0 -14 -3 -6 -6z"/>
<path d="M5478 3123 c7 -3 16 -2 19 1 4 3 -2 6 -13 5 -11 0 -14 -3 -6 -6z"/>
<path d="M6138 2903 c7 -3 16 -2 19 1 4 3 -2 6 -13 5 -11 0 -14 -3 -6 -6z"/>
</g>
</svg>
